<svg display="none" xmlns="http://www.w3.org/2000/svg">
    <symbol id="luna" viewBox="0 0 15 15">
        <path
            d="M0.519007 7.79554C0.770943 11.3996 3.82916 14.3319 7.48922 14.4928C10.0716 14.6048 12.381 13.4011 13.7666 11.5046C14.3405 10.7278 14.0325 10.2099 13.0738 10.3849C12.6049 10.4689 12.122 10.5038 11.6182 10.4828C8.19604 10.3429 5.39676 7.48062 5.38276 4.10048C5.37576 3.19072 5.56471 2.32994 5.90763 1.54614C6.28553 0.67836 5.83065 0.265466 4.95587 0.636371C2.18458 1.80507 0.288066 4.59736 0.519007 7.79554Z"
            stroke="white" stroke-linecap="round" stroke-linejoin="round" />
    </symbol>


    <symbol id="sun" viewBox="0 0 24 24">
        <path
            d="M17.006,12.008c0,2.761-2.239,5-5,5	c-2.761,0-5-2.239-5-5s2.239-5,5-5C14.767,7.008,17.006,9.248,17.006,12.008" />
    </symbol>

    <symbol id="header-bg" viewBox="0 0 1440 174">
        <path
            d="M1451.6 93.7452C1450.93 93.7452 1450.25 93.7455 1449.59 93.7491C1447.28 93.7455 1445.01 93.7416 1442.78 93.7416C1396.25 93.7416 1366.11 94.6288 1352.36 96.4033C1178.93 113.08 1152.5 171.416 1060.58 171.416C1060.36 171.416 1060.15 171.416 1059.95 171.412C1037.1 172.734 1014.69 173.393 992.723 173.393C957.766 173.393 923.935 171.724 891.227 168.378C876.745 168.226 839.905 161.012 780.696 146.737L589.933 87.8462C544.931 77.8803 515.924 72.8971 502.916 72.8971C501.402 72.8971 500.106 72.966 499.023 73.1L468.093 73.0094C447.321 73.8676 426.201 76.0803 404.737 79.6474C383.273 83.2144 361.426 87.6542 339.198 92.9631C225.121 122.702 154.429 139.701 127.12 143.956C115.26 147.552 76.5802 152.361 11.0771 158.387C-11.1399 160.592 -38.3254 161.693 -70.4831 161.693C-73.6083 161.693 -76.7806 161.682 -80 161.66L-79.9927 -174L1520 -173.996L1520 99.2714C1496.29 95.5921 1473.49 93.7452 1451.6 93.7452Z"
            fill="black" />
    </symbol>
    <symbol id="carousel-left" viewBox="0 0 7 11">
        <path
            d="M5.07335 10.1468L6.27466 8.95618L2.3275 5.07338L6.27466 1.19058L5.07335 0L-2.86102e-05 5.07338L5.07335 10.1468Z"
            fill="#626264" />
    </symbol>

    <symbol id="carousel-right" viewBox="0 0 7 11">
        <path
            d="M1.20131 10.1468L0 8.95618L3.94715 5.07338L0 1.19058L1.20131 0L6.27469 5.07338L1.20131 10.1468Z"
            fill="#626264" />
    </symbol>


</svg>